# xmcd
#
# Track frame offsets: 
#        200
#        14182
#        25315
#        39412
#        54250
#        68475
#        79735
#        95802
#        109042
#        123480
#        137182
#        147682
#        163182
#        180030
#
# Disc length: 2543 seconds
#
# Revision: 2
# Processed by: cddbd v1.5.2PL0 Copyright (c) Steve Scherf et al.
# Submitted via: ExactAudioCopyFreeDBPlugin 1.0
#
DISCID=c109ed0e
DTITLE=Joey Miskulin - Country Polkatime
DYEAR=1996
DGENRE=Country
TTITLE0=The Cracker Barrel Polka
TTITLE1=The Tic-Toc Polka
TTITLE2=Down At The Twist And Shout
TTITLE3=Under The Double Eagle
TTITLE4=The Clarinet Polka
TTITLE5=The Pennsylvania Polka
TTITLE6=El Rancho Grande
TTITLE7=Just Another Polka
TTITLE8=Jambalaya - Arcadian Stomp
TTITLE9=Hoop Dee Doo
TTITLE10=The Laughing Polka
TTITLE11=Chattahoochee
TTITLE12=The Beer Barrel Polka
TTITLE13=The Wabash Cannon Ball
EXTD=
EXTT0=
EXTT1=
EXTT2=
EXTT3=
EXTT4=
EXTT5=
EXTT6=
EXTT7=
EXTT8=
EXTT9=
EXTT10=
EXTT11=
EXTT12=
EXTT13=
PLAYORDER=
